<?xml version="1.0" standalone="no"?>
<!DOCTYPE svg PUBLIC "-//W3C//DTD SVG 20010904//EN"
 "http://www.w3.org/TR/2001/REC-SVG-20010904/DTD/svg10.dtd">
<svg version="1.0" xmlns="http://www.w3.org/2000/svg"
 width="1024.000000pt" height="1024.000000pt" viewBox="0 0 1024.000000 1024.000000"
 preserveAspectRatio="xMidYMid meet">
<metadata>
Created by potrace 1.11, written by Peter Selinger 2001-2013
</metadata>
<g transform="translate(0.000000,1024.000000) scale(0.100000,-0.100000)"
fill="#000000" stroke="none">
<path d="M0 5130 l0 -5110 5120 0 5120 0 0 5110 0 5110 -5120 0 -5120 0 0
-5110z m4990 4542 c588 -54 918 -105 1316 -202 1163 -285 2079 -862 2665
-1681 214 -300 405 -681 524 -1049 283 -876 310 -2036 65 -2897 -184 -650
-487 -1195 -937 -1687 -349 -382 -753 -682 -1248 -926 -639 -315 -1283 -482
-2190 -567 -161 -15 -417 -17 -2392 -20 l-2213 -4 0 131 0 130 33 0 c17 0 106
5 196 11 443 28 691 122 799 302 71 118 114 258 149 487 16 107 17 331 21
3355 2 2277 0 3291 -8 3412 -18 295 -62 503 -133 637 -107 201 -341 289 -849
318 l-208 12 0 128 0 129 2143 -4 c1508 -3 2179 -7 2267 -15z"/>
<path d="M3585 9166 c-161 -26 -274 -80 -331 -157 -13 -19 -35 -63 -47 -99
l-22 -65 -3 -3615 c-2 -3937 -6 -3708 53 -3839 31 -69 94 -133 159 -162 144
-63 358 -84 796 -76 585 11 966 54 1360 153 922 231 1607 691 2066 1389 325
495 514 1084 591 1845 22 219 25 882 5 1085 -64 648 -223 1209 -463 1639 -174
310 -354 541 -645 826 -711 695 -1391 974 -2604 1070 -224 18 -821 22 -915 6z"/>
</g>
</svg>
